<svg width="125" height="72" fill="none" xmlns="http://www.w3.org/2000/svg"><path d="M51 42.2h-5.5V57H42V42.2h-5.4v-3H51v3ZM58.4 57a4 4 0 0 1-.3-1.2c-.9 1-2 1.4-3.4 1.4-1.2 0-2.3-.3-3.2-1a3.6 3.6 0 0 1-1.2-3c0-1.3.5-2.4 1.5-3.1 1-.8 2.6-1.2 4.5-1.2H58v-.7c0-.6-.1-1.1-.4-1.5-.3-.4-.8-.5-1.5-.5-.6 0-1 .1-1.4.4-.4.3-.5.7-.5 1.2h-3.5c0-.8.2-1.5.7-2.2.4-.6 1.1-1.1 2-1.5.8-.4 1.8-.6 2.9-.6 1.6 0 2.9.5 3.8 1.3 1 .8 1.5 2 1.5 3.4V54c0 1.3.2 2.2.5 2.9v.2h-3.6Zm-2.9-2.5c.5 0 1 0 1.5-.3.4-.2.7-.5 1-1V51h-1.4c-1.7 0-2.7.6-2.8 1.8v.2c0 .5.1.8.4 1.1.4.3.8.4 1.3.4ZM68 57h-3.5V43.8h3.5V57Zm-3.7-16.6c0-.6.1-1 .5-1.3a2 2 0 0 1 1.4-.5c.6 0 1.1.1 1.5.5.3.3.5.7.5 1.3 0 .5-.2 1-.5 1.3a2 2 0 0 1-1.5.5 2 2 0 0 1-1.4-.5c-.4-.3-.5-.8-.5-1.3Zm18.1 11.8 1.7-8.4h3.5L84 57h-3l-2.5-8.3-2.5 8.3h-3l-3.3-13.2h3.4l1.7 8.4 2.5-8.4h2.5l2.4 8.4ZM97 57a4 4 0 0 1-.4-1.2c-.8 1-2 1.4-3.3 1.4-1.3 0-2.4-.3-3.2-1a3.6 3.6 0 0 1-1.3-3c0-1.3.5-2.4 1.5-3.1 1-.8 2.6-1.2 4.5-1.2h1.7v-.7c0-.6-.2-1.1-.5-1.5-.3-.4-.8-.5-1.5-.5-.6 0-1 .1-1.4.4-.3.3-.5.7-.5 1.2H89c0-.8.2-1.5.7-2.2.5-.6 1.1-1.1 2-1.5.9-.4 1.8-.6 2.9-.6 1.6 0 3 .5 3.9 1.3 1 .8 1.4 2 1.4 3.4V54c0 1.3.2 2.2.5 2.9v.2H97Zm-3-2.5c.6 0 1 0 1.5-.3.4-.2.8-.5 1-1V51H95c-1.7 0-2.7.6-2.8 1.8v.2c0 .5.2.8.5 1.1.3.3.7.4 1.2.4Zm12-10.7v1.5c1-1.2 2.3-1.8 3.9-1.8 1.4 0 2.4.5 3 1.3.8.8 1.1 2 1.1 3.7V57h-3.5v-8.4c0-.8-.1-1.3-.5-1.7-.3-.3-.8-.5-1.6-.5-1 0-1.7.4-2.2 1.3V57h-3.6V43.8h3.4Zm11-1.4c0-1 .2-1.8.9-2.4a3.2 3.2 0 0 1 4.6 0c.7.6 1 1.4 1 2.4 0 .9-.3 1.7-1 2.3-.6.7-1.4 1-2.3 1-.8 0-1.6-.3-2.3-1-.7-.6-1-1.4-1-2.3Zm3.2 1.5c.5 0 .8-.2 1-.5.4-.3.5-.6.5-1 0-.5-.1-.8-.4-1.1-.3-.4-.6-.5-1-.5-.5 0-.9.1-1.2.5-.2.3-.4.6-.4 1 0 .5.2.8.4 1.1.3.3.7.5 1.1.5ZM15 71l-.6-3c-.2-.7-.2-1.4-.5-2-.4-1-.9-2.2-1.7-3-.8-.8-2-1.4-3.2-1.8-2.9-1.1-4.3-3.3-5.2-6-.5-2-1.3-3.7-2-5.6-.2-.3-.7-.5-1-.8-1.2-1-1-3.8.3-4.7-.5-.5-.5-.8-.4-1.5.1-1.1.4-2.4-.2-3.6-.3-.7 0-1.8.2-2.6C1 35.2 2 34.4 2 33c0-.8.7-1.5 1.1-2.2l1.6-3c.6-1.1.9-2.3 2-3.2.8-.6.8-2 1.3-3l1.2-2.1 2.3-4.5c.1-.2.5-.3.8-.3.6 0 1-.3 1.2-.9l2.4-6c.4-.8 1.3-1.3 2-1.8l1.6-.7c.9-.4 1.8-1 2.7-1.2 1-.3 1.6-.6 1.7-1.6.2-1.3 2-2.7 3.2-2.6.4 0 .7.4 1 .7l.8 1.1C30 3.3 31.6 3 33 3.5c.5.1 1 .5 1.2.9.3.7.7 1.1 1.5 1.1l.3.2c-.8.8-1.5 1.5-2.3 2-1.2 1-1.3 2.2-1 3.4l.3 1.6.4 1.2c.4.8 1.3 1.5 0 2.4 0 1.9-2 3.2-1.7 5.2 0 .2 0 .4-.2.5-1.3.7-1.4 2-2 3.2v.3c.6 1.1-.2 2.3-.1 3.4v.6c-1 2.5-1 5.1-1.4 7.7-.3 1.8-.5 3.6-1.4 5.2-.2.3-.2.6-.2 1 0 2.2-.9 4-2 6-.4.9-.6 1.9-1.6 2.6-.4.2-.2 1.1-.6 1.6l-1.5 1.8c-.6.8-1.2 1.6-1.5 2.6l-1 5.5.2 3 .3 2c0 .5-.3 1-.5 1.5h-.4l.9 2-3.7-1Z" fill="#FF1D6C"/><path d="M75.7 62.7h-2.2V69h-1v-6.3h-2.3v-.8h5.5v.8Zm.2 3.6c0-.5.1-1 .3-1.4.2-.4.5-.7.9-1 .3-.2.8-.3 1.2-.3.7 0 1.3.3 1.8.8.4.5.6 1.1.6 2 0 .5 0 1-.3 1.4a2.2 2.2 0 0 1-2 1.3c-.8 0-1.4-.3-1.8-.7-.5-.5-.7-1.2-.7-2Zm1 .1c0 .6 0 1 .3 1.4.3.4.7.6 1.1.6.5 0 .9-.2 1.1-.6.3-.3.4-.8.4-1.5 0-.6-.1-1-.4-1.4-.3-.4-.6-.5-1-.5-.5 0-.9.1-1.2.5-.2.3-.4.9-.4 1.5Zm8.2 2c-.3.5-.8.7-1.5.7-.6 0-1-.2-1.3-.5-.3-.3-.5-.8-.5-1.4v-3.5h1v3.4c0 .8.3 1.2 1 1.2.6 0 1-.2 1.3-.7v-3.9h1V69h-1v-.5Zm4.8-3.9h-.4c-.6 0-1 .2-1.2.8V69h-1v-5.3h1v.6c.3-.4.7-.7 1.2-.7h.4v1Zm.6 1.8c0-.8.1-1.5.5-2 .4-.4 1-.7 1.5-.7.7 0 1.2.2 1.6.7v-.6h.8V69c0 .7-.2 1.2-.6 1.6-.4.4-1 .6-1.6.6-.4 0-.8-.1-1.1-.3a2 2 0 0 1-.9-.6l.5-.6c.4.5.9.7 1.4.7.5 0 .8 0 1-.3.3-.3.4-.6.4-1v-.5c-.3.4-.8.6-1.5.6-.6 0-1-.3-1.5-.7-.4-.5-.5-1.2-.5-2Zm.9.1c0 .6 0 1 .3 1.4.3.4.6.5 1 .5.6 0 1-.2 1.3-.7V65c-.3-.5-.7-.7-1.2-.7s-.8.2-1 .5c-.3.3-.4.8-.4 1.5Zm8.2 2c-.4.5-1 .7-1.6.7-.6 0-1-.2-1.3-.5-.3-.3-.4-.8-.4-1.4v-3.5h.9v3.4c0 .8.3 1.2 1 1.2.6 0 1.1-.2 1.3-.7v-3.9h1V69h-1v-.5Zm3.2.6h-1v-5.3h1V69Zm-1-6.7.1-.4.4-.1.4.1.2.4c0 .2 0 .3-.2.4l-.4.1-.4-.1v-.4Zm2.2 4c0-.8.2-1.4.6-2 .4-.4.9-.7 1.5-.7s1.1.2 1.5.7v-2.8h.9V69h-.9v-.6c-.4.5-.9.7-1.5.7s-1.1-.3-1.5-.8c-.4-.5-.6-1.1-.6-2Zm1 .1c0 .6 0 1 .3 1.4.2.4.6.5 1 .5.6 0 1-.2 1.3-.7V65c-.3-.5-.7-.7-1.3-.7-.4 0-.8.2-1 .5-.3.3-.4.8-.4 1.5Zm7 2.7c-.6 0-1.2-.2-1.7-.7-.4-.5-.6-1.1-.6-1.9v-.2c0-.5 0-1 .3-1.4.2-.4.4-.7.8-1 .4-.2.7-.3 1.2-.3a2 2 0 0 1 1.6.7c.3.5.5 1.1.5 2v.3h-3.5c0 .5.1 1 .4 1.3a1.6 1.6 0 0 0 2 .3l.5-.6.6.5c-.5.7-1.1 1-2 1Zm0-4.7c-.4 0-.7 0-1 .4a2 2 0 0 0-.4 1h2.6c0-.5-.1-.8-.3-1-.3-.3-.6-.4-1-.4Z" fill="#0D0B0C"/></svg>